<svg width="249" height="240" viewBox="0 0 249 240" fill="none" xmlns="http://www.w3.org/2000/svg">
<g filter="url(#filter0_d_6_968)">
<rect x="174.22" y="143.894" width="60.249" height="60.249" rx="30.1245" transform="rotate(-15 174.22 143.894)" fill="#94B4F6" shape-rendering="crispEdges"/>
<g clip-path="url(#clip0_6_968)">
<path d="M217.402 172.896C216.481 173.142 215.622 173.036 214.825 172.575C214.028 172.115 213.506 171.425 213.26 170.504C213.013 169.584 213.12 168.725 213.58 167.928C214.04 167.131 214.731 166.609 215.651 166.362C216.572 166.115 217.43 166.222 218.228 166.682C219.025 167.143 219.547 167.833 219.793 168.754C220.04 169.674 219.933 170.533 219.473 171.33C219.013 172.127 218.322 172.649 217.402 172.896V172.896ZM204.621 181.374C204.082 181.518 203.557 181.442 203.044 181.146C202.532 180.851 202.203 180.433 202.059 179.894L196.464 159.014C196.32 158.475 196.396 157.949 196.691 157.437C196.987 156.925 197.405 156.596 197.943 156.452L200.133 155.865L199.591 153.844L201.78 153.258L202.322 155.279L213.772 152.21L213.231 150.19L215.42 149.603L215.961 151.624L218.15 151.037C218.689 150.893 219.215 150.969 219.727 151.264C220.24 151.56 220.568 151.978 220.713 152.517L226.307 173.397C226.452 173.936 226.376 174.462 226.08 174.974C225.784 175.486 225.367 175.815 224.828 175.959L204.621 181.374ZM204.08 179.353L224.287 173.938L220.406 159.457L200.199 164.871L204.08 179.353Z" fill="#1D1E2C"/>
</g>
</g>
<g filter="url(#filter1_d_6_968)">
<rect x="166.889" y="78.6255" width="40.166" height="40.166" rx="20.083" transform="rotate(-15 166.889 78.6255)" fill="#37373A"/>
<g clip-path="url(#clip1_6_968)">
<path d="M194.085 102.526C192.743 102.885 191.414 102.968 190.097 102.775C188.781 102.582 187.569 102.166 186.462 101.527C185.356 100.888 184.389 100.047 183.564 99.0033C182.739 97.9597 182.146 96.767 181.787 95.4252C181.427 94.0835 181.344 92.7544 181.537 91.4378C181.73 90.1213 182.146 88.9096 182.785 87.8028C183.424 86.6959 184.265 85.7298 185.309 84.9044C186.353 84.0789 187.545 83.4865 188.887 83.127C189.905 82.8541 190.91 82.7408 191.902 82.787C192.893 82.8332 193.846 83.0111 194.76 83.3204L193.678 85.1959C193.005 85.0124 192.311 84.9124 191.596 84.896C190.881 84.8796 190.16 84.9689 189.433 85.1638C187.315 85.7313 185.709 86.963 184.614 88.8589C183.52 90.7549 183.256 92.7618 183.823 94.8795C184.391 96.9971 185.623 98.6033 187.519 99.698C189.415 100.793 191.421 101.056 193.539 100.489C195.657 99.9213 197.263 98.6896 198.358 96.7937C199.452 94.8977 199.716 92.8908 199.148 90.7731C199.075 90.4983 198.992 90.2389 198.901 89.9948C198.809 89.7508 198.707 89.514 198.594 89.2845L199.801 87.1938C200.113 87.6473 200.384 88.1248 200.613 88.6263C200.843 89.1279 201.034 89.6616 201.185 90.2274C201.545 91.5691 201.628 92.8982 201.435 94.2148C201.242 95.5313 200.826 96.743 200.187 97.8498C199.548 98.9567 198.707 99.9228 197.663 100.748C196.619 101.574 195.427 102.166 194.085 102.526ZM191.341 97.6211L186.077 94.5614L187.125 92.7474L190.599 94.7533L197.61 82.6088L199.418 83.6318L191.341 97.6211Z" fill="#94B4F6"/>
</g>
</g>
<g filter="url(#filter2_d_6_968)">
<g clip-path="url(#clip2_6_968)">
<rect x="150.141" y="16.1187" width="40.166" height="40.166" rx="20.083" transform="rotate(-15 150.141 16.1187)" fill="#37373A"/>
<path d="M182.685 27.903L177.741 27.1444C177.571 27.1151 177.384 27.1153 177.198 27.1652L176.441 27.3679L175.038 22.1303C174.608 20.524 172.955 19.5698 171.348 20.0001C169.742 20.4305 168.788 22.0834 169.218 23.6896L171.76 33.1756L169.459 33.2932C169.228 33.3175 168.225 33.4367 167.62 34.4845L166.43 36.5623L174.008 41.0062C174.557 41.3331 175.216 41.4185 175.833 41.2532L183.457 39.2105C184.597 38.9048 185.345 37.8312 185.229 36.6523L184.603 30.0337C184.509 28.9859 183.729 28.1222 182.685 27.903ZM182.833 36.8826L175.209 38.9254L169.724 35.6797L174.855 35.4151L171.546 23.0659C171.459 22.74 171.646 22.4153 171.972 22.328C172.298 22.2407 172.623 22.4281 172.71 22.754L174.637 29.947L176.686 29.3981L182.207 30.264L182.833 36.8826Z" fill="#94B4F6"/>
</g>
</g>
<path d="M114.754 195.211L115.203 196.886L108.695 198.63L108.246 196.955L114.754 195.211ZM106.008 186.211L109.293 198.47L107.18 199.036L103.895 186.777L106.008 186.211ZM112.44 189.974L112.882 191.624L107.224 193.141L106.782 191.49L112.44 189.974ZM111.877 184.639L112.328 186.322L105.861 188.055L105.41 186.371L111.877 184.639ZM119.041 194.134L119.262 186.035L121.367 185.471L120.642 195.429L119.329 195.781L119.041 194.134ZM115.322 187.09L119.614 194.017L120.146 195.562L118.832 195.914L113.209 187.657L115.322 187.09ZM129.006 193.368C128.332 193.549 127.694 193.602 127.091 193.529C126.492 193.449 125.948 193.261 125.46 192.965C124.977 192.667 124.562 192.276 124.216 191.791C123.869 191.306 123.613 190.753 123.446 190.13L123.355 189.793C123.164 189.08 123.095 188.407 123.148 187.773C123.201 187.139 123.358 186.568 123.618 186.059C123.877 185.544 124.23 185.109 124.677 184.755C125.123 184.401 125.641 184.145 126.231 183.987C126.882 183.812 127.481 183.769 128.028 183.857C128.575 183.945 129.062 184.146 129.488 184.459C129.919 184.764 130.286 185.168 130.589 185.671C130.898 186.171 131.14 186.75 131.316 187.407L131.549 188.274L124.51 190.16L124.119 188.704L129.154 187.355L129.112 187.195C129.003 186.833 128.838 186.51 128.617 186.226C128.403 185.941 128.134 185.736 127.812 185.612C127.49 185.487 127.104 185.485 126.655 185.606C126.319 185.696 126.038 185.849 125.813 186.066C125.593 186.276 125.431 186.538 125.33 186.854C125.228 187.17 125.18 187.532 125.187 187.939C125.198 188.339 125.267 188.775 125.393 189.247L125.483 189.584C125.59 189.982 125.743 190.338 125.941 190.652C126.144 190.959 126.385 191.21 126.666 191.405C126.947 191.601 127.259 191.731 127.601 191.796C127.942 191.855 128.306 191.832 128.693 191.729C129.181 191.598 129.59 191.383 129.919 191.084C130.248 190.785 130.505 190.419 130.689 189.984L132.036 190.734C131.916 191.072 131.735 191.416 131.491 191.764C131.246 192.106 130.918 192.42 130.507 192.704C130.101 192.988 129.601 193.209 129.006 193.368ZM134.282 184.095L136.202 191.26L134.173 191.803L131.732 182.693L133.643 182.181L134.282 184.095ZM134.529 186.465L133.87 186.632C133.703 185.985 133.634 185.369 133.663 184.784C133.699 184.197 133.822 183.668 134.032 183.196C134.248 182.723 134.55 182.323 134.938 181.997C135.324 181.665 135.79 181.426 136.334 181.28C136.772 181.162 137.184 181.118 137.571 181.147C137.962 181.168 138.32 181.28 138.644 181.482C138.975 181.682 139.265 181.98 139.516 182.376C139.765 182.767 139.973 183.274 140.14 183.897L141.717 189.782L139.679 190.328L138.1 184.434C137.983 183.996 137.825 183.669 137.629 183.451C137.436 183.225 137.205 183.092 136.935 183.05C136.669 183.001 136.359 183.024 136.006 183.118C135.658 183.212 135.366 183.368 135.13 183.588C134.894 183.807 134.714 184.069 134.591 184.373C134.473 184.675 134.409 185.005 134.396 185.363C134.384 185.722 134.428 186.089 134.529 186.465ZM145.523 178.998L145.92 180.48L140.784 181.856L140.387 180.374L145.523 178.998ZM141.271 177.746L143.3 177.202L145.664 186.026C145.74 186.307 145.837 186.512 145.956 186.643C146.079 186.766 146.221 186.833 146.38 186.845C146.54 186.856 146.718 186.836 146.914 186.783C147.054 186.745 147.187 186.701 147.311 186.65C147.436 186.598 147.535 186.553 147.609 186.516L148.033 188.062C147.878 188.158 147.694 188.256 147.48 188.355C147.271 188.453 147.024 188.54 146.738 188.617C146.272 188.742 145.837 188.771 145.435 188.705C145.03 188.632 144.677 188.435 144.374 188.113C144.071 187.792 143.836 187.319 143.669 186.696L141.271 177.746ZM147.747 183.392L147.695 183.199C147.519 182.542 147.452 181.907 147.492 181.295C147.531 180.677 147.674 180.112 147.922 179.6C148.174 179.082 148.531 178.637 148.991 178.267C149.455 177.89 150.019 177.613 150.681 177.435C151.349 177.256 151.976 177.215 152.561 177.311C153.15 177.4 153.684 177.606 154.161 177.929C154.637 178.246 155.047 178.663 155.389 179.179C155.731 179.689 155.989 180.272 156.165 180.929L156.217 181.123C156.393 181.78 156.461 182.414 156.42 183.027C156.38 183.639 156.234 184.205 155.982 184.723C155.728 185.236 155.372 185.681 154.913 186.056C154.453 186.426 153.891 186.7 153.229 186.878C152.561 187.057 151.933 187.102 151.343 187.013C150.758 186.917 150.227 186.71 149.751 186.393C149.274 186.07 148.864 185.653 148.523 185.143C148.182 184.633 147.923 184.049 147.747 183.392ZM149.724 182.655L149.776 182.849C149.886 183.258 150.032 183.634 150.214 183.977C150.396 184.319 150.613 184.604 150.867 184.831C151.12 185.057 151.408 185.212 151.731 185.294C152.054 185.376 152.409 185.365 152.796 185.261C153.172 185.16 153.477 184.995 153.709 184.764C153.948 184.531 154.12 184.254 154.226 183.93C154.332 183.607 154.378 183.252 154.365 182.865C154.357 182.476 154.298 182.076 154.188 181.667L154.136 181.473C154.028 181.069 153.881 180.699 153.695 180.364C153.513 180.022 153.292 179.735 153.031 179.504C152.776 179.271 152.487 179.114 152.165 179.032C151.846 178.943 151.496 178.95 151.114 179.052C150.733 179.154 150.423 179.324 150.186 179.562C149.953 179.793 149.785 180.073 149.68 180.402C149.576 180.731 149.53 181.089 149.544 181.476C149.556 181.858 149.616 182.251 149.724 182.655Z" fill="white"/>
<path d="M67.4206 129.899L67.9607 119.015L70.2929 118.391L69.1826 131.827L67.6082 132.249L67.4206 129.899ZM61.7554 120.678L67.6395 129.84L68.6774 131.962L67.0946 132.387L59.4316 121.301L61.7554 120.678ZM74.4792 120.644L76.9202 129.754L74.8827 130.3L72.4417 121.19L74.4792 120.644ZM71.6662 118.835C71.5835 118.526 71.6161 118.244 71.764 117.987C71.9161 117.724 72.1745 117.543 72.5394 117.446C72.8986 117.349 73.2099 117.377 73.4732 117.529C73.735 117.676 73.9073 117.903 73.99 118.212C74.0712 118.515 74.0351 118.796 73.8816 119.053C73.728 119.311 73.4716 119.488 73.1124 119.584C72.7475 119.682 72.4342 119.658 72.1724 119.511C71.9162 119.363 71.7474 119.138 71.6662 118.835ZM83.5926 125.322C83.5385 125.12 83.4391 124.951 83.2944 124.815C83.1483 124.674 82.914 124.574 82.5917 124.516C82.2749 124.457 81.8265 124.445 81.2463 124.48C80.735 124.502 80.2577 124.495 79.8145 124.457C79.3753 124.412 78.9841 124.322 78.6407 124.185C78.2972 124.049 78.0078 123.855 77.7725 123.606C77.5371 123.356 77.3683 123.04 77.266 122.658C77.1667 122.288 77.1541 121.915 77.2282 121.541C77.3022 121.166 77.4569 120.812 77.6924 120.478C77.9278 120.144 78.242 119.846 78.6351 119.584C79.0339 119.321 79.5026 119.117 80.0415 118.973C80.8049 118.768 81.4934 118.722 82.107 118.835C82.7248 118.94 83.2383 119.172 83.6475 119.532C84.0551 119.886 84.3319 120.335 84.4778 120.879L82.4487 121.423C82.384 121.182 82.2621 120.974 82.083 120.799C81.908 120.618 81.6825 120.494 81.4065 120.43C81.1291 120.36 80.8079 120.374 80.4431 120.472C80.0951 120.565 79.821 120.698 79.621 120.872C79.425 121.039 79.2942 121.225 79.2286 121.429C79.1686 121.631 79.1664 121.836 79.222 122.044C79.2626 122.196 79.3276 122.326 79.4168 122.434C79.5101 122.535 79.6405 122.618 79.8079 122.681C79.9738 122.739 80.1887 122.778 80.4526 122.797C80.7221 122.815 81.0526 122.814 81.4442 122.793C82.1793 122.753 82.8275 122.781 83.3887 122.877C83.954 122.966 84.4195 123.154 84.7852 123.441C85.1494 123.723 85.4044 124.136 85.5503 124.68C85.6586 125.084 85.6709 125.478 85.5871 125.861C85.5074 126.238 85.3379 126.593 85.0785 126.927C84.8177 127.256 84.4779 127.548 84.0594 127.805C83.6464 128.06 83.1593 128.263 82.598 128.413C81.7729 128.634 81.035 128.675 80.3842 128.537C79.732 128.393 79.1954 128.13 78.7746 127.75C78.3579 127.362 78.0826 126.919 77.9488 126.419L79.9105 125.893C80.0338 126.263 80.2181 126.536 80.4635 126.711C80.7129 126.879 80.9916 126.975 81.2993 127.001C81.6111 127.02 81.9186 126.989 82.2217 126.907C82.5865 126.81 82.8797 126.68 83.1011 126.518C83.321 126.351 83.4729 126.166 83.5569 125.963C83.6394 125.755 83.6513 125.541 83.5926 125.322ZM92.923 123.165L91.0573 116.202L93.0948 115.656L95.5359 124.766L93.6162 125.28L92.923 123.165ZM92.7017 121.194L93.3792 120.994C93.5431 121.606 93.6269 122.188 93.6306 122.741C93.6327 123.287 93.5446 123.789 93.3662 124.246C93.1863 124.697 92.9061 125.088 92.5254 125.419C92.1432 125.744 91.6462 125.988 91.0344 126.152C90.591 126.271 90.1667 126.316 89.7617 126.286C89.3566 126.256 88.9833 126.142 88.6417 125.945C88.3057 125.747 88.0068 125.451 87.745 125.057C87.4833 124.664 87.272 124.168 87.111 123.567L85.5341 117.682L87.5632 117.138L89.1447 123.04C89.2334 123.371 89.3471 123.639 89.4859 123.842C89.6231 124.04 89.7771 124.188 89.9479 124.287C90.1188 124.385 90.3015 124.439 90.4961 124.447C90.6908 124.455 90.8892 124.432 91.0912 124.377C91.6694 124.223 92.094 123.988 92.365 123.675C92.6401 123.355 92.7959 122.982 92.8325 122.557C92.8746 122.131 92.831 121.676 92.7017 121.194ZM102.262 121.005L101.098 116.661C101.011 116.335 100.876 116.07 100.695 115.866C100.514 115.662 100.286 115.528 100.01 115.463C99.7395 115.397 99.4247 115.413 99.0655 115.509C98.7343 115.598 98.4631 115.73 98.2518 115.907C98.0405 116.084 97.8931 116.286 97.8095 116.513C97.726 116.74 97.7165 116.974 97.7812 117.216L95.7605 117.757C95.6642 117.398 95.658 117.026 95.7417 116.643C95.8255 116.26 95.9976 115.892 96.2581 115.539C96.5186 115.187 96.8587 114.873 97.2783 114.598C97.698 114.323 98.1941 114.109 98.7666 113.956C99.4514 113.772 100.088 113.725 100.678 113.813C101.273 113.901 101.784 114.137 102.212 114.521C102.644 114.899 102.953 115.436 103.14 116.132L104.225 120.181C104.336 120.597 104.464 120.963 104.609 121.279C104.758 121.588 104.921 121.848 105.098 122.059L105.134 122.194L103.055 122.751C102.9 122.558 102.75 122.3 102.604 121.979C102.462 121.65 102.348 121.325 102.262 121.005ZM101.562 117.213L101.915 118.463L100.458 118.854C100.082 118.954 99.7606 119.08 99.4939 119.229C99.2256 119.373 99.0142 119.538 98.8594 119.724C98.7047 119.91 98.6052 120.111 98.5609 120.328C98.5166 120.544 98.5268 120.773 98.5914 121.014C98.6561 121.256 98.7717 121.462 98.9381 121.634C99.103 121.801 99.3071 121.911 99.5505 121.966C99.7995 122.02 100.078 122.005 100.387 121.923C100.802 121.811 101.142 121.63 101.405 121.379C101.673 121.121 101.864 120.844 101.977 120.549C102.089 120.248 102.121 119.984 102.072 119.757L102.97 120.482C102.964 120.73 102.915 121.008 102.823 121.315C102.731 121.623 102.585 121.932 102.386 122.244C102.191 122.549 101.932 122.826 101.607 123.076C101.289 123.324 100.894 123.511 100.422 123.637C99.8272 123.796 99.2652 123.821 98.7362 123.71C98.2056 123.593 97.7543 123.368 97.3822 123.035C97.0086 122.696 96.7526 122.268 96.6142 121.752C96.4849 121.269 96.4604 120.818 96.5407 120.4C96.6252 119.974 96.8104 119.587 97.0963 119.24C97.3879 118.891 97.7746 118.583 98.2564 118.316C98.7367 118.042 99.308 117.817 99.9703 117.64L101.562 117.213ZM105.618 108.203L109.083 121.136L107.045 121.682L103.58 108.749L105.618 108.203ZM111.037 110.848L113.478 119.958L111.44 120.504L108.999 111.394L111.037 110.848ZM108.224 109.039C108.141 108.73 108.174 108.448 108.322 108.192C108.474 107.928 108.732 107.748 109.097 107.65C109.456 107.554 109.768 107.582 110.031 107.734C110.293 107.88 110.465 108.108 110.548 108.416C110.629 108.72 110.593 109 110.439 109.258C110.286 109.515 110.029 109.692 109.67 109.789C109.305 109.886 108.992 109.862 108.73 109.716C108.474 109.568 108.305 109.342 108.224 109.039ZM122.315 115.858L122.748 117.474L115.962 119.293L115.529 117.676L122.315 115.858ZM120.46 109.677L116.652 119.108L115.339 119.46L114.989 118.155L118.775 108.775L120.122 108.414L120.46 109.677ZM119.339 108.624L119.772 110.24L113.432 111.939L112.999 110.323L119.339 108.624ZM129.019 113.836L127.855 109.491C127.768 109.166 127.634 108.901 127.453 108.697C127.272 108.492 127.043 108.358 126.767 108.294C126.497 108.228 126.182 108.243 125.823 108.339C125.492 108.428 125.22 108.561 125.009 108.738C124.798 108.915 124.65 109.117 124.567 109.344C124.483 109.57 124.474 109.805 124.539 110.046L122.518 110.587C122.422 110.228 122.415 109.857 122.499 109.473C122.583 109.09 122.755 108.722 123.015 108.37C123.276 108.017 123.616 107.703 124.036 107.428C124.455 107.153 124.951 106.939 125.524 106.786C126.209 106.602 126.846 106.555 127.435 106.644C128.03 106.731 128.541 106.967 128.969 107.352C129.401 107.729 129.711 108.266 129.897 108.962L130.982 113.012C131.094 113.427 131.222 113.793 131.367 114.109C131.516 114.418 131.678 114.678 131.855 114.89L131.892 115.024L129.812 115.582C129.658 115.388 129.508 115.131 129.361 114.809C129.219 114.48 129.105 114.156 129.019 113.836ZM128.319 110.044L128.672 111.294L127.215 111.684C126.839 111.785 126.518 111.91 126.251 112.06C125.983 112.204 125.772 112.369 125.617 112.555C125.462 112.74 125.363 112.941 125.318 113.158C125.274 113.374 125.284 113.603 125.349 113.845C125.413 114.086 125.529 114.293 125.695 114.465C125.86 114.631 126.064 114.742 126.308 114.797C126.557 114.85 126.836 114.836 127.144 114.753C127.56 114.642 127.899 114.461 128.163 114.21C128.431 113.951 128.621 113.675 128.735 113.38C128.847 113.079 128.878 112.815 128.829 112.587L129.727 113.312C129.722 113.56 129.673 113.838 129.581 114.146C129.488 114.453 129.343 114.763 129.144 115.075C128.949 115.38 128.689 115.657 128.365 115.906C128.046 116.154 127.651 116.341 127.18 116.467C126.585 116.627 126.023 116.651 125.494 116.54C124.963 116.424 124.512 116.199 124.14 115.865C123.766 115.526 123.51 115.098 123.372 114.582C123.242 114.099 123.218 113.649 123.298 113.23C123.383 112.804 123.568 112.418 123.854 112.07C124.145 111.722 124.532 111.413 125.014 111.146C125.494 110.873 126.065 110.648 126.728 110.47L128.319 110.044ZM133.729 106.627L135.706 114.002L133.676 114.546L131.235 105.436L133.172 104.917L133.729 106.627ZM136.036 104.087L136.524 105.977C136.395 105.988 136.255 106.007 136.106 106.035C135.963 106.061 135.821 106.093 135.681 106.131C135.333 106.224 135.041 106.357 134.804 106.528C134.566 106.694 134.382 106.894 134.252 107.128C134.126 107.354 134.05 107.609 134.023 107.893C133.997 108.176 134.018 108.48 134.087 108.805L133.633 108.963C133.48 108.39 133.394 107.845 133.375 107.326C133.357 106.808 133.41 106.333 133.535 105.903C133.666 105.471 133.875 105.105 134.162 104.805C134.454 104.504 134.828 104.293 135.282 104.171C135.406 104.138 135.541 104.114 135.687 104.099C135.839 104.082 135.955 104.078 136.036 104.087Z" fill="white"/>
<path d="M83.104 59.3064L83.5529 60.9819L77.0446 62.7258L76.5956 61.0503L83.104 59.3064ZM74.3576 50.3068L77.6424 62.5657L75.5291 63.1319L72.2443 50.873L74.3576 50.3068ZM80.7894 54.07L81.2316 55.7202L75.5737 57.2363L75.1315 55.586L80.7894 54.07ZM80.2261 48.7343L80.6773 50.4182L74.211 52.1509L73.7598 50.4669L80.2261 48.7343ZM85.1693 52.8694L87.0891 60.0344L85.06 60.5781L82.619 51.4681L84.5302 50.956L85.1693 52.8694ZM85.4163 55.2396L84.7574 55.4072C84.59 54.7602 84.5211 54.144 84.5508 53.5585C84.586 52.9715 84.7089 52.4422 84.9194 51.9707C85.1356 51.4977 85.4376 51.0979 85.8254 50.7714C86.2116 50.4393 86.677 50.2003 87.2215 50.0544C87.6593 49.9371 88.0716 49.8928 88.4583 49.9216C88.8491 49.9432 89.2069 50.0549 89.5317 50.2566C89.8621 50.4568 90.1525 50.755 90.403 51.1511C90.6521 51.5416 90.86 52.0484 91.027 52.6714L92.6039 58.5567L90.5664 59.1027L88.9872 53.209C88.8699 52.7712 88.7128 52.4433 88.5161 52.2253C88.3234 52.0001 88.0921 51.8666 87.8221 51.8246C87.5563 51.7755 87.2466 51.7984 86.893 51.8931C86.545 51.9864 86.253 52.1428 86.0171 52.3624C85.7811 52.5821 85.6016 52.8438 85.4784 53.1475C85.3609 53.4497 85.2959 53.7799 85.2836 54.1382C85.2713 54.4964 85.3156 54.8636 85.4163 55.2396ZM97.2079 55.5995L97.429 47.4998L99.5339 46.9358L98.8092 56.894L97.4957 57.246L97.2079 55.5995ZM93.4887 48.5556L97.7811 55.482L98.3124 57.0271L96.999 57.3791L91.3753 49.1219L93.4887 48.5556ZM102.961 46.0176L105.402 55.1276L103.364 55.6735L100.923 46.5636L102.961 46.0176ZM100.148 44.2085C100.065 43.8998 100.098 43.6173 100.246 43.3611C100.398 43.0978 100.656 42.9172 101.021 42.8195C101.38 42.7232 101.691 42.7511 101.955 42.9031C102.217 43.0496 102.389 43.2771 102.472 43.5858C102.553 43.8889 102.517 44.1694 102.363 44.4271C102.209 44.6848 101.953 44.8618 101.594 44.958C101.229 45.0558 100.916 45.0315 100.654 44.885C100.398 44.7371 100.229 44.5116 100.148 44.2085ZM112.271 51.3288L111.107 46.9843C111.019 46.6587 110.885 46.3939 110.704 46.1897C110.523 45.9855 110.295 45.8512 110.019 45.7868C109.748 45.7209 109.434 45.736 109.074 45.8323C108.743 45.921 108.472 46.0539 108.261 46.2308C108.049 46.4077 107.902 46.6097 107.818 46.8366C107.735 47.0635 107.725 47.2977 107.79 47.5391L105.769 48.0805C105.673 47.7213 105.667 47.3499 105.751 46.9665C105.834 46.5831 106.007 46.2152 106.267 45.8626C106.528 45.5101 106.868 45.1963 107.287 44.9215C107.707 44.6466 108.203 44.4324 108.776 44.279C109.46 44.0955 110.097 44.0482 110.687 44.1369C111.282 44.2242 111.793 44.4601 112.221 44.8448C112.653 45.2224 112.962 45.7591 113.149 46.4552L114.234 50.505C114.345 50.9203 114.473 51.2861 114.618 51.6022C114.767 51.9112 114.93 52.1714 115.107 52.3826L115.143 52.5174L113.063 53.0746C112.909 52.8813 112.759 52.6237 112.613 52.302C112.471 51.9731 112.357 51.6487 112.271 51.3288ZM111.571 47.5368L111.924 48.7868L110.467 49.1771C110.091 49.2778 109.77 49.4031 109.503 49.5527C109.235 49.6968 109.023 49.8618 108.868 50.0476C108.714 50.2335 108.614 50.4346 108.57 50.651C108.526 50.8674 108.536 51.0963 108.6 51.3377C108.665 51.579 108.781 51.7857 108.947 51.9577C109.112 52.1241 109.316 52.2348 109.559 52.2899C109.808 52.3435 110.087 52.329 110.396 52.2462C110.811 52.1349 111.151 51.9537 111.414 51.7026C111.682 51.4444 111.873 51.1677 111.986 50.8726C112.098 50.5719 112.13 50.3078 112.081 50.0803L112.979 50.8052C112.973 51.0534 112.924 51.3312 112.832 51.6386C112.74 51.946 112.594 52.2558 112.395 52.5678C112.2 52.8727 111.941 53.1499 111.616 53.3992C111.298 53.647 110.903 53.8341 110.431 53.9604C109.836 54.1198 109.274 54.1441 108.745 54.0332C108.215 53.9166 107.763 53.6916 107.391 53.3582C107.018 53.0191 106.762 52.5914 106.623 52.075C106.494 51.5923 106.469 51.1416 106.55 50.723C106.634 50.2973 106.819 49.9108 107.105 49.5635C107.397 49.2146 107.784 48.9065 108.265 48.639C108.746 48.3659 109.317 48.1406 109.979 47.9632L111.571 47.5368ZM116.981 44.1198L118.957 51.4954L116.928 52.0391L114.487 42.9291L116.424 42.4102L116.981 44.1198ZM119.287 41.5797L119.776 43.4702C119.646 43.4809 119.507 43.5001 119.358 43.528C119.215 43.5544 119.073 43.5864 118.933 43.624C118.585 43.7172 118.292 43.8497 118.055 44.0214C117.817 44.1875 117.633 44.3873 117.503 44.6206C117.377 44.8469 117.301 45.1019 117.275 45.3856C117.249 45.6694 117.27 45.9735 117.339 46.298L116.885 46.4557C116.731 45.8832 116.645 45.3377 116.627 44.8193C116.608 44.3009 116.662 43.8264 116.787 43.3958C116.918 42.9636 117.127 42.5979 117.413 42.2984C117.706 41.9975 118.079 41.7861 118.534 41.6643C118.657 41.6312 118.792 41.6071 118.939 41.592C119.091 41.5753 119.207 41.5712 119.287 41.5797Z" fill="white"/>
<defs>
<filter id="filter0_d_6_968" x="167.526" y="126.069" width="87.1783" height="87.1782" filterUnits="userSpaceOnUse" color-interpolation-filters="sRGB">
<feFlood flood-opacity="0" result="BackgroundImageFix"/>
<feColorMatrix in="SourceAlpha" type="matrix" values="0 0 0 0 0 0 0 0 0 0 0 0 0 0 0 0 0 0 127 0" result="hardAlpha"/>
<feOffset dy="4.46289"/>
<feGaussianBlur stdDeviation="3.34716"/>
<feComposite in2="hardAlpha" operator="out"/>
<feColorMatrix type="matrix" values="0 0 0 0 0 0 0 0 0 0 0 0 0 0 0 0 0 0 0.25 0"/>
<feBlend mode="normal" in2="BackgroundImageFix" result="effect1_dropShadow_6_968"/>
<feBlend mode="normal" in="SourceGraphic" in2="effect1_dropShadow_6_968" result="shape"/>
</filter>
<filter id="filter1_d_6_968" x="160.195" y="65.9983" width="62.5817" height="62.5817" filterUnits="userSpaceOnUse" color-interpolation-filters="sRGB">
<feFlood flood-opacity="0" result="BackgroundImageFix"/>
<feColorMatrix in="SourceAlpha" type="matrix" values="0 0 0 0 0 0 0 0 0 0 0 0 0 0 0 0 0 0 127 0" result="hardAlpha"/>
<feOffset dy="4.46289"/>
<feGaussianBlur stdDeviation="3.34716"/>
<feComposite in2="hardAlpha" operator="out"/>
<feColorMatrix type="matrix" values="0 0 0 0 0 0 0 0 0 0 0 0 0 0 0 0 0 0 0.25 0"/>
<feBlend mode="normal" in2="BackgroundImageFix" result="effect1_dropShadow_6_968"/>
<feBlend mode="normal" in="SourceGraphic" in2="effect1_dropShadow_6_968" result="shape"/>
</filter>
<filter id="filter2_d_6_968" x="143.446" y="3.4915" width="62.5817" height="62.5817" filterUnits="userSpaceOnUse" color-interpolation-filters="sRGB">
<feFlood flood-opacity="0" result="BackgroundImageFix"/>
<feColorMatrix in="SourceAlpha" type="matrix" values="0 0 0 0 0 0 0 0 0 0 0 0 0 0 0 0 0 0 127 0" result="hardAlpha"/>
<feOffset dy="4.46289"/>
<feGaussianBlur stdDeviation="3.34716"/>
<feComposite in2="hardAlpha" operator="out"/>
<feColorMatrix type="matrix" values="0 0 0 0 0 0 0 0 0 0 0 0 0 0 0 0 0 0 0.25 0"/>
<feBlend mode="normal" in2="BackgroundImageFix" result="effect1_dropShadow_6_968"/>
<feBlend mode="normal" in="SourceGraphic" in2="effect1_dropShadow_6_968" result="shape"/>
</filter>
<clipPath id="clip0_6_968">
<rect width="33.4716" height="33.4716" fill="white" transform="translate(190.618 153.361) rotate(-15)"/>
</clipPath>
<clipPath id="clip1_6_968">
<rect width="24.0996" height="24.0996" fill="white" transform="translate(176.728 84.3058) rotate(-15)"/>
</clipPath>
<clipPath id="clip2_6_968">
<rect x="150.141" y="16.1187" width="40.166" height="40.166" rx="20.083" transform="rotate(-15 150.141 16.1187)" fill="white"/>
</clipPath>
</defs>
</svg>
