<svg width="293" height="135" viewBox="0 0 293 135" fill="none" xmlns="http://www.w3.org/2000/svg">
<rect x="0.35379" y="75.0417" width="286.442" height="61.2963" rx="4.7151" transform="rotate(-15 0.35379 75.0417)" fill="#F7D0DF"/>
<rect x="0.35379" y="75.0417" width="109.626" height="61.2963" rx="4.7151" transform="rotate(-15 0.35379 75.0417)" fill="#EC5A53"/>
<path d="M32.3977 89.5556L42.6062 95.4495L36.7124 105.658" stroke="black" stroke-width="2.35755"/>
<path d="M70.713 79.5185L72.6279 79.0054L80.0775 88.7969L80.2328 88.7553L81.7885 76.5508L83.7035 76.0377L87.2536 89.287L85.7527 89.6892L83.0554 79.6228L82.9261 79.6575L81.4829 90.8333L80.0338 91.2216L73.1961 82.2646L73.0667 82.2993L75.764 92.3656L74.2631 92.7678L70.713 79.5185ZM94.4852 87.5712C93.5278 87.8277 92.6452 87.8377 91.8376 87.6011C91.0331 87.359 90.341 86.9066 89.7612 86.2437C89.1846 85.5754 88.7599 84.7323 88.4872 83.7145C88.2145 82.6966 88.1595 81.7499 88.3224 80.8741C88.4885 79.993 88.8474 79.245 89.3992 78.6303C89.9541 78.0101 90.6801 77.5798 91.5772 77.3394C92.0948 77.2008 92.629 77.1501 93.1798 77.1874C93.7306 77.2247 94.2651 77.3819 94.7831 77.6592C95.3 77.9321 95.7663 78.3526 96.182 78.9207C96.5978 79.4888 96.9298 80.2365 97.1783 81.1638L97.3517 81.8108L89.6919 83.8632L89.3383 82.5434L95.4454 80.907C95.2951 80.3464 95.049 79.8761 94.7068 79.4963C94.369 79.1153 93.9611 78.8525 93.4832 78.7078C93.0096 78.562 92.4968 78.563 91.9447 78.7109C91.3366 78.8739 90.8509 79.1658 90.4875 79.5868C90.1274 80.0022 89.8928 80.4811 89.7839 81.0234C89.6749 81.5657 89.6939 82.1107 89.8406 82.6584L90.0764 83.5383C90.2775 84.2887 90.5773 84.8902 90.9759 85.3427C91.3777 85.7898 91.8479 86.0868 92.3865 86.2337C92.9239 86.3763 93.501 86.3649 94.1177 86.1997C94.5188 86.0922 94.8661 85.9391 95.1595 85.7403C95.4561 85.536 95.6924 85.2878 95.8683 84.9956C96.0431 84.6992 96.149 84.3611 96.1859 83.9814L97.7719 84.0002C97.7507 84.5421 97.6076 85.0519 97.3427 85.5297C97.0767 86.0031 96.7024 86.4178 96.2199 86.7736C95.7363 87.125 95.158 87.3909 94.4852 87.5712ZM102.526 74.5445L102.872 75.8383L97.7228 77.2182L97.3761 75.9243L102.526 74.5445ZM98.2391 73.1414L99.7659 72.7323L102.304 82.2035C102.419 82.6348 102.568 82.9415 102.751 83.1236C102.937 83.3003 103.139 83.3987 103.357 83.4188C103.579 83.4335 103.801 83.4108 104.026 83.3507C104.194 83.3057 104.329 83.2601 104.433 83.2139C104.535 83.1635 104.616 83.1231 104.678 83.0928L105.356 84.3811C105.262 84.4477 105.128 84.5252 104.953 84.6137C104.779 84.7065 104.55 84.7911 104.266 84.8674C103.834 84.9829 103.387 85.0034 102.923 84.9289C102.464 84.8533 102.047 84.6621 101.674 84.3553C101.305 84.0474 101.043 83.6045 100.888 83.0266L98.2391 73.1414ZM110.472 83.3154C109.842 83.4841 109.239 83.5187 108.662 83.419C108.084 83.315 107.583 83.077 107.16 82.705C106.736 82.3287 106.437 81.8171 106.263 81.1702C106.111 80.6009 106.099 80.1094 106.229 79.6956C106.357 79.2776 106.582 78.9169 106.903 78.6136C107.224 78.3104 107.597 78.0485 108.023 77.828C108.453 77.602 108.89 77.3969 109.336 77.2129C109.919 76.9735 110.393 76.7841 110.757 76.6447C111.125 76.4999 111.382 76.3548 111.528 76.2094C111.678 76.0628 111.721 75.8666 111.655 75.6207L111.641 75.569C111.47 74.9307 111.162 74.4815 110.718 74.2214C110.278 73.9602 109.707 73.9238 109.004 74.1122C108.275 74.3075 107.746 74.6202 107.418 75.0503C107.089 75.4804 106.89 75.8991 106.818 76.3065L105.231 76.1772C105.328 75.5041 105.547 74.9415 105.888 74.4895C106.232 74.0321 106.643 73.6678 107.12 73.3965C107.601 73.1198 108.091 72.9145 108.592 72.7804C108.911 72.6949 109.288 72.6355 109.723 72.6022C110.161 72.5634 110.605 72.6085 111.056 72.7373C111.51 72.8651 111.93 73.1293 112.315 73.5301C112.7 73.9309 112.998 74.5259 113.209 75.3152L114.964 81.8622L113.437 82.2713L113.076 80.9256L112.999 80.9464C112.953 81.1898 112.842 81.4668 112.667 81.7773C112.491 82.0879 112.226 82.3831 111.871 82.6631C111.516 82.9431 111.049 83.1606 110.472 83.3154ZM110.337 81.8815C110.941 81.7197 111.418 81.4647 111.768 81.1166C112.123 80.7673 112.356 80.3767 112.467 79.9448C112.582 79.5118 112.584 79.0883 112.473 78.6743L112.099 77.2769C112.055 77.3719 111.931 77.4812 111.729 77.6048C111.529 77.723 111.294 77.8439 111.022 77.9676C110.753 78.0859 110.489 78.1981 110.231 78.3042C109.976 78.4049 109.77 78.488 109.612 78.5535C109.229 78.7115 108.88 78.895 108.566 79.1039C108.256 79.3073 108.025 79.5517 107.875 79.8369C107.728 80.1166 107.707 80.4506 107.811 80.8387C107.953 81.3692 108.257 81.7177 108.722 81.8843C109.191 82.0454 109.729 82.0444 110.337 81.8815ZM126.682 78.9442C125.854 79.1661 125.067 79.1528 124.32 78.9043C123.573 78.6515 122.918 78.1892 122.354 77.5174C121.789 76.8413 121.366 75.9771 121.084 74.9248C120.804 73.881 120.74 72.9274 120.893 72.0638C121.045 71.2001 121.384 70.4736 121.91 69.8843C122.437 69.2949 123.118 68.8881 123.955 68.6639C124.602 68.4905 125.142 68.4614 125.575 68.5765C126.011 68.6862 126.365 68.8503 126.636 69.0688C126.91 69.2819 127.126 69.4597 127.285 69.6021L127.414 69.5675L126.104 64.6766L127.631 64.2675L131.181 77.5168L129.706 77.912L129.297 76.3853L129.115 76.4338C129.052 76.645 128.953 76.9163 128.82 77.2478C128.686 77.575 128.456 77.8978 128.13 78.2163C127.803 78.5305 127.32 78.7731 126.682 78.9442ZM126.521 77.5172C127.134 77.3531 127.608 77.0548 127.946 76.6224C128.282 76.1857 128.483 75.6532 128.551 75.025C128.617 74.3924 128.55 73.7009 128.348 72.9505C128.15 72.2087 127.868 71.5885 127.503 71.0899C127.137 70.587 126.701 70.2369 126.196 70.0396C125.689 69.838 125.125 69.8204 124.503 69.9869C123.857 70.1602 123.362 70.4707 123.02 70.9184C122.68 71.3605 122.479 71.893 122.414 72.5158C122.353 73.1331 122.416 73.7911 122.604 74.4898C122.793 75.1971 123.073 75.8108 123.444 76.331C123.817 76.8457 124.263 77.2162 124.782 77.4425C125.303 77.6633 125.883 77.6882 126.521 77.5172ZM138.411 75.8014C137.453 76.058 136.571 76.0679 135.763 75.8313C134.959 75.5892 134.266 75.1368 133.687 74.4739C133.11 73.8056 132.685 72.9626 132.413 71.9447C132.14 70.9269 132.085 69.9801 132.248 69.1044C132.414 68.2232 132.773 67.4752 133.325 66.8605C133.88 66.2403 134.606 65.81 135.503 65.5697C136.02 65.431 136.554 65.3803 137.105 65.4176C137.656 65.4549 138.19 65.6122 138.709 65.8894C139.225 66.1623 139.692 66.5828 140.107 67.1509C140.523 67.7191 140.855 68.4668 141.104 69.394L141.277 70.041L133.617 72.0934L133.264 70.7736L139.371 69.1373C139.221 68.5766 138.974 68.1063 138.632 67.7265C138.294 67.3455 137.887 67.0827 137.409 66.938C136.935 66.7922 136.422 66.7932 135.87 66.9412C135.262 67.1041 134.776 67.396 134.413 67.817C134.053 68.2324 133.818 68.7113 133.709 69.2536C133.6 69.7959 133.619 70.3409 133.766 70.8887L134.002 71.7685C134.203 72.519 134.503 73.1204 134.901 73.573C135.303 74.02 135.773 74.317 136.312 74.4639C136.849 74.6065 137.426 74.5952 138.043 74.4299C138.444 74.3224 138.792 74.1693 139.085 73.9705C139.382 73.7662 139.618 73.518 139.794 73.2258C139.969 72.9294 140.074 72.5913 140.111 72.2116L141.697 72.2304C141.676 72.7723 141.533 73.2821 141.268 73.7599C141.002 74.2334 140.628 74.648 140.145 75.0038C139.662 75.3553 139.083 75.6211 138.411 75.8014ZM154.888 62.8992L153.621 63.6548C153.473 63.4494 153.287 63.2614 153.061 63.0908C152.838 62.9147 152.565 62.7937 152.242 62.7276C151.919 62.6616 151.536 62.6881 151.092 62.8071C150.484 62.97 150.014 63.246 149.684 63.635C149.357 64.0185 149.25 64.4237 149.365 64.8507C149.467 65.2302 149.685 65.493 150.02 65.639C150.355 65.785 150.835 65.8527 151.461 65.8422L153.033 65.8093C153.979 65.7868 154.73 65.9394 155.285 66.2669C155.838 66.5901 156.208 67.0989 156.394 67.7933C156.546 68.3626 156.519 68.9154 156.311 69.4518C156.108 69.987 155.75 70.462 155.237 70.8768C154.724 71.2916 154.082 71.6024 153.31 71.8092C152.296 72.0808 151.398 72.0856 150.616 71.8237C149.834 71.5617 149.241 71.0318 148.838 70.2338L150.19 69.4833C150.471 69.9811 150.84 70.3123 151.295 70.4768C151.755 70.6402 152.298 70.6381 152.923 70.4705C153.635 70.2799 154.159 69.9775 154.497 69.5635C154.837 69.1441 154.951 68.7208 154.836 68.2939C154.744 67.9488 154.545 67.6922 154.242 67.524C153.936 67.3515 153.518 67.2741 152.987 67.2917L151.226 67.3473C150.259 67.3755 149.501 67.2204 148.952 66.8819C148.407 66.538 148.043 66.0232 147.859 65.3374C147.709 64.7767 147.733 64.2386 147.933 63.7229C148.136 63.2061 148.479 62.7514 148.961 62.3588C149.447 61.965 150.039 61.6746 150.738 61.4873C151.721 61.2239 152.551 61.2326 153.227 61.5137C153.908 61.7936 154.462 62.2554 154.888 62.8992ZM163.656 69.037C162.698 69.2936 161.816 69.3035 161.008 69.0669C160.204 68.8248 159.511 68.3724 158.932 67.7095C158.355 67.0412 157.93 66.1981 157.658 65.1803C157.385 64.1625 157.33 63.2157 157.493 62.34C157.659 61.4588 158.018 60.7108 158.57 60.0961C159.125 59.4759 159.851 59.0456 160.748 58.8052C161.265 58.6666 161.799 58.6159 162.35 58.6532C162.901 58.6905 163.436 58.8478 163.954 59.125C164.471 59.3979 164.937 59.8184 165.353 60.3865C165.768 60.9547 166.1 61.7024 166.349 62.6296L166.522 63.2766L158.862 65.329L158.509 64.0092L164.616 62.3729C164.466 61.8122 164.219 61.3419 163.877 60.9621C163.539 60.5811 163.132 60.3183 162.654 60.1736C162.18 60.0278 161.667 60.0288 161.115 60.1768C160.507 60.3397 160.021 60.6316 159.658 61.0526C159.298 61.468 159.063 61.9469 158.954 62.4892C158.845 63.0315 158.864 63.5765 159.011 64.1243L159.247 65.0041C159.448 65.7545 159.748 66.356 160.146 66.8086C160.548 67.2556 161.018 67.5526 161.557 67.6995C162.094 67.8421 162.671 67.8308 163.288 67.6655C163.689 67.558 164.037 67.4049 164.33 67.2061C164.627 67.0018 164.863 66.7536 165.039 66.4614C165.214 66.165 165.32 65.8269 165.356 65.4472L166.942 65.466C166.921 66.0079 166.778 66.5177 166.513 66.9955C166.247 67.469 165.873 67.8836 165.39 68.2394C164.907 68.5908 164.329 68.8567 163.656 69.037ZM175.102 69.9638C174.365 70.1614 173.705 70.2364 173.124 70.1888C172.544 70.1455 172.036 70.0181 171.6 69.8067C171.17 69.5984 170.805 69.3494 170.506 69.0599L171.493 67.88C171.68 68.0242 171.91 68.1844 172.183 68.3607C172.458 68.5413 172.802 68.6687 173.215 68.743C173.633 68.8204 174.142 68.7788 174.742 68.6182C175.544 68.4032 176.154 68.0318 176.572 67.5038C176.99 66.9758 177.088 66.2977 176.866 65.4697L176.325 63.4512L176.195 63.4859C176.132 63.6971 176.032 63.9641 175.897 64.287C175.765 64.6044 175.535 64.918 175.206 65.2279C174.881 65.5323 174.395 65.7712 173.748 65.9445C172.946 66.1595 172.175 66.1627 171.435 65.9542C170.699 65.7445 170.049 65.3271 169.483 64.7019C168.923 64.0756 168.504 63.2449 168.226 62.2098C167.954 61.1919 167.895 60.2577 168.051 59.407C168.205 58.552 168.546 57.832 169.074 57.2469C169.6 56.6575 170.281 56.2507 171.118 56.0265C171.765 55.8532 172.307 55.8235 172.745 55.9374C173.185 56.0459 173.543 56.2088 173.818 56.4262C174.097 56.6382 174.316 56.8154 174.474 56.9578L174.629 56.9162L174.206 55.3377L175.681 54.9425L178.42 65.1641C178.649 66.018 178.641 66.7644 178.396 67.4032C178.157 68.0452 177.745 68.5785 177.161 69.0031C176.582 69.431 175.896 69.7512 175.102 69.9638ZM173.587 64.5175C174.2 64.3534 174.68 64.0746 175.027 63.681C175.375 63.2874 175.588 62.7981 175.667 62.2129C175.746 61.6278 175.687 60.9687 175.491 60.2355C175.299 59.5195 175.022 58.9166 174.66 58.4266C174.297 57.9367 173.863 57.593 173.357 57.3958C172.851 57.1985 172.288 57.1831 171.667 57.3495C171.02 57.5228 170.525 57.8312 170.181 58.2745C169.842 58.7167 169.639 59.2427 169.571 59.8526C169.507 60.4612 169.566 61.102 169.746 61.7748C169.931 62.4649 170.202 63.0462 170.56 63.519C170.921 63.9862 171.356 64.3136 171.863 64.5011C172.374 64.6831 172.949 64.6886 173.587 64.5175ZM186.312 58.3898L184.738 52.5156L186.265 52.1065L188.928 62.0435L187.401 62.4526L186.95 60.7705L186.847 60.7983C186.749 61.3653 186.502 61.8915 186.105 62.3769C185.707 62.858 185.133 63.1991 184.382 63.4002C183.761 63.5666 183.173 63.5786 182.617 63.4364C182.06 63.2898 181.569 62.9774 181.145 62.4993C180.72 62.0169 180.394 61.3531 180.168 60.5077L178.476 54.1936L180.003 53.7845L181.667 59.9951C181.861 60.7197 182.219 61.2433 182.74 61.566C183.265 61.8875 183.845 61.9633 184.479 61.7934C184.858 61.6917 185.218 61.4912 185.559 61.192C185.903 60.8916 186.156 60.505 186.316 60.0323C186.48 59.5584 186.479 59.0109 186.312 58.3898ZM191.724 61.2942L189.062 51.3572L190.588 50.9481L193.251 60.8851L191.724 61.2942ZM189.394 49.4931C189.097 49.5728 188.813 49.5402 188.543 49.3953C188.277 49.2492 188.106 49.0338 188.03 48.7492C187.954 48.4645 187.994 48.1925 188.151 47.9332C188.312 47.6727 188.542 47.5026 188.839 47.4229C189.137 47.3431 189.419 47.3763 189.684 47.5224C189.954 47.6673 190.127 47.8821 190.204 48.1667C190.28 48.4514 190.237 48.724 190.076 48.9845C189.919 49.2438 189.692 49.4133 189.394 49.4931ZM199.855 59.3374C199.027 59.5593 198.24 59.546 197.494 59.2975C196.747 59.0447 196.091 58.5825 195.527 57.9107C194.963 57.2346 194.539 56.3704 194.257 55.318C193.978 54.2743 193.914 53.3206 194.066 52.457C194.218 51.5934 194.558 50.8669 195.084 50.2775C195.61 49.6881 196.292 49.2813 197.128 49.0571C197.775 48.8838 198.315 48.8547 198.748 48.9698C199.184 49.0794 199.538 49.2435 199.809 49.462C200.084 49.6751 200.3 49.8529 200.458 49.9954L200.588 49.9607L199.277 45.0699L200.804 44.6608L204.354 57.91L202.879 58.3053L202.47 56.7785L202.289 56.827C202.225 57.0382 202.127 57.3096 201.994 57.6411C201.86 57.9682 201.629 58.2911 201.303 58.6096C200.976 58.9238 200.493 59.1664 199.855 59.3374ZM199.695 57.9104C200.307 57.7463 200.782 57.4481 201.119 57.0157C201.455 56.579 201.657 56.0465 201.724 55.4182C201.79 54.7857 201.723 54.0942 201.522 53.3437C201.323 52.6019 201.041 51.9817 200.677 51.4831C200.311 50.9802 199.875 50.6301 199.369 50.4329C198.862 50.2313 198.298 50.2137 197.677 50.3801C197.03 50.5534 196.535 50.8639 196.193 51.3116C195.854 51.7538 195.652 52.2863 195.588 52.909C195.527 53.5263 195.59 54.1843 195.777 54.883C195.967 55.5904 196.247 56.2041 196.617 56.7242C196.991 57.2389 197.437 57.6094 197.955 57.8357C198.476 58.0566 199.056 58.0815 199.695 57.9104ZM211.455 56.2293C210.558 56.4697 209.713 56.4671 208.922 56.2216C208.135 55.9749 207.448 55.5185 206.863 54.8525C206.282 54.1854 205.854 53.3385 205.579 52.3121C205.302 51.277 205.247 50.3231 205.416 49.4506C205.588 48.5769 205.954 47.8364 206.512 47.2291C207.075 46.6207 207.805 46.1963 208.702 45.956C209.599 45.7156 210.441 45.7187 211.228 45.9654C212.02 46.211 212.707 46.6695 213.289 47.341C213.875 48.0113 214.307 48.864 214.584 49.8991C214.859 50.9256 214.91 51.8735 214.736 52.7429C214.567 53.6111 214.201 54.3495 213.638 54.9579C213.08 55.5651 212.352 55.9889 211.455 56.2293ZM211.087 54.8578C211.769 54.6752 212.282 54.3503 212.629 53.8831C212.975 53.4159 213.178 52.8693 213.236 52.2434C213.295 51.6174 213.236 50.9724 213.058 50.3082C212.88 49.644 212.608 49.0534 212.243 48.5364C211.878 48.0194 211.428 47.643 210.894 47.4073C210.359 47.1715 209.751 47.1449 209.069 47.3275C208.388 47.5101 207.875 47.8371 207.53 48.3087C207.184 48.7802 206.983 49.3311 206.925 49.9613C206.868 50.5916 206.928 51.2388 207.106 51.903C207.284 52.5672 207.555 53.1556 207.919 53.6683C208.283 54.1809 208.731 54.553 209.265 54.7845C209.798 55.016 210.406 55.0404 211.087 54.8578ZM218.232 54.1913L215.57 44.2544L217.045 43.8591L217.447 45.36L217.551 45.3323C217.6 44.7921 217.821 44.3053 218.213 43.872C218.606 43.4386 219.099 43.1422 219.695 42.9828C219.807 42.9527 219.947 42.9173 220.117 42.8766C220.286 42.8358 220.415 42.8082 220.504 42.7937L220.92 44.3463C220.864 44.3473 220.741 44.3596 220.548 44.3835C220.359 44.4018 220.163 44.4381 219.96 44.4924C219.477 44.6219 219.073 44.8388 218.748 45.1432C218.426 45.4421 218.202 45.7979 218.077 46.2105C217.955 46.6176 217.954 47.0455 218.074 47.494L219.759 53.7822L218.232 54.1913ZM228.93 51.5468C227.973 51.8034 227.09 51.8133 226.282 51.5767C225.478 51.3346 224.786 50.8822 224.206 50.2193C223.629 49.551 223.205 48.7079 222.932 47.6901C222.659 46.6722 222.604 45.7255 222.767 44.8498C222.933 43.9686 223.292 43.2206 223.844 42.6059C224.399 41.9857 225.125 41.5554 226.022 41.315C226.54 41.1764 227.074 41.1257 227.625 41.163C228.175 41.2003 228.71 41.3576 229.228 41.6348C229.745 41.9077 230.211 42.3282 230.627 42.8963C231.043 43.4645 231.375 44.2122 231.623 45.1394L231.796 45.7864L224.137 47.8388L223.783 46.519L229.89 44.8827C229.74 44.322 229.494 43.8517 229.152 43.4719C228.814 43.0909 228.406 42.8281 227.928 42.6834C227.454 42.5376 226.942 42.5386 226.39 42.6865C225.781 42.8495 225.296 43.1414 224.932 43.5624C224.572 43.9778 224.338 44.4567 224.229 44.999C224.12 45.5413 224.139 46.0863 224.285 46.6341L224.521 47.5139C224.722 48.2643 225.022 48.8658 225.421 49.3184C225.823 49.7654 226.293 50.0624 226.831 50.2093C227.369 50.3519 227.946 50.3406 228.563 50.1753C228.964 50.0678 229.311 49.9147 229.604 49.7159C229.901 49.5116 230.137 49.2634 230.313 48.9712C230.488 48.6748 230.594 48.3367 230.631 47.957L232.217 47.9758C232.196 48.5177 232.052 49.0275 231.788 49.5053C231.522 49.9788 231.147 50.3934 230.665 50.7492C230.181 51.1006 229.603 51.3665 228.93 51.5468ZM240.284 40.0175L239.017 40.7731C238.869 40.5677 238.682 40.3796 238.456 40.2091C238.233 40.033 237.961 39.912 237.638 39.8459C237.315 39.7799 236.932 39.8064 236.487 39.9254C235.879 40.0883 235.41 40.3643 235.08 40.7533C234.753 41.1368 234.646 41.542 234.761 41.969C234.862 42.3485 235.081 42.6113 235.416 42.7573C235.751 42.9033 236.231 42.971 236.857 42.9605L238.429 42.9275C239.375 42.9051 240.126 43.0577 240.68 43.3852C241.234 43.7084 241.603 44.2172 241.79 44.9116C241.942 45.4809 241.915 46.0337 241.707 46.5701C241.504 47.1053 241.146 47.5803 240.633 47.9951C240.12 48.4099 239.477 48.7207 238.705 48.9275C237.692 49.1991 236.794 49.2039 236.012 48.942C235.23 48.68 234.637 48.1501 234.234 47.3521L235.586 46.6016C235.867 47.0994 236.236 47.4306 236.691 47.5951C237.151 47.7585 237.693 47.7564 238.319 47.5888C239.03 47.3982 239.555 47.0958 239.892 46.6818C240.233 46.2624 240.346 45.8391 240.232 45.4121C240.139 45.0671 239.941 44.8105 239.637 44.6423C239.332 44.4698 238.914 44.3924 238.382 44.41L236.622 44.4656C235.654 44.4938 234.896 44.3387 234.348 44.0002C233.803 43.6563 233.438 43.1415 233.255 42.4557C233.104 41.895 233.129 41.3569 233.328 40.8412C233.532 40.3244 233.875 39.8697 234.356 39.4771C234.843 39.0833 235.435 38.7929 236.134 38.6056C237.117 38.3422 237.947 38.3509 238.623 38.632C239.304 38.9119 239.857 39.3737 240.284 40.0175Z" fill="black"/>
</svg>
