<svg width="608" height="92" viewBox="0 0 608 92" fill="none" xmlns="http://www.w3.org/2000/svg">
<path d="M14.742 31.468C21.84 31.468 26.871 26.476 26.871 19.417V4.207H21.099V19.183C21.099 23.317 18.447 26.242 14.742 26.242C10.998 26.242 8.346 23.317 8.346 19.183V4.207H2.613V19.417C2.613 26.476 7.605 31.468 14.742 31.468ZM53.1914 31L46.6004 21.64C50.2664 20.353 52.6844 17.233 52.6844 13.255C52.6844 7.951 48.3944 4.207 42.5834 4.207H30.5324V31H36.2654V22.303H40.5164L46.6394 31H53.1914ZM36.2654 9.472H41.9594C44.8064 9.472 46.7564 10.954 46.7564 13.255C46.7564 15.556 44.8064 17.038 41.9594 17.038H36.2654V9.472ZM55.6381 31H69.7171C74.8261 31 78.4921 28.036 78.4921 23.746C78.4921 20.782 76.6981 18.286 73.5781 16.882C75.9571 15.634 77.3221 13.645 77.3221 10.915C77.3221 7.015 74.0071 4.207 69.2101 4.207H55.6381V31ZM61.3711 15.01V9.121H67.7671C69.9121 9.121 71.4331 10.369 71.4331 12.046C71.4331 13.762 69.9121 15.01 67.7671 15.01H61.3711ZM61.3711 26.086V19.534H68.6641C70.9651 19.534 72.6031 20.899 72.6031 22.81C72.6031 24.721 70.9651 26.086 68.6641 26.086H61.3711ZM100.77 31H107.244L96.3236 4.207H89.8886L78.9686 31H85.4036L87.1196 26.788H99.0536L100.77 31ZM89.1086 21.913L93.0866 12.124L97.0646 21.913H89.1086ZM109.076 31H114.809V13.684L127.718 31H133.49V4.207H127.718V21.523L114.809 4.207H109.076V31ZM147.05 31H156.644C165.653 31 172.049 25.423 172.049 17.584C172.049 9.745 165.653 4.207 156.644 4.207H147.05V31ZM152.783 25.774V9.433H157.385C162.494 9.433 166.121 12.826 166.121 17.584C166.121 22.381 162.494 25.774 157.385 25.774H152.783ZM195.556 9.394V4.207H174.925V31H195.556V25.813H180.697V19.924H194.152V14.737H180.697V9.394H195.556ZM208.49 31.468C215.042 31.468 218.903 28.075 218.903 22.966C218.903 18.013 215.081 16.297 209.309 15.01C205.175 14.074 203.576 13.45 203.576 11.5C203.576 9.901 205.058 8.614 207.515 8.614C210.089 8.614 212.78 9.667 215.159 11.578L218.162 7.444C215.432 5.104 212.039 3.739 207.671 3.739C201.821 3.739 197.765 7.132 197.765 12.085C197.765 17.272 201.782 18.871 207.437 20.158C211.532 21.094 213.092 21.679 213.092 23.59C213.092 25.267 211.61 26.593 208.724 26.593C205.331 26.593 202.445 25.267 199.91 23.083L196.595 27.022C199.715 29.908 203.849 31.468 208.49 31.468ZM221.547 31H227.319V4.207H221.547V31ZM243.392 20.431H249.632V24.526C248.111 25.618 246.239 26.242 244.406 26.242C239.843 26.242 235.982 22.264 235.982 17.584C235.982 12.943 239.843 8.965 244.406 8.965C246.863 8.965 249.476 10.135 251.075 11.968L255.248 8.224C252.557 5.416 248.423 3.739 244.406 3.739C236.645 3.739 230.054 10.057 230.054 17.584C230.054 25.111 236.645 31.468 244.406 31.468C248.423 31.468 252.557 29.791 255.248 26.983V15.946H243.392V20.431ZM258.764 31H264.497V13.684L277.406 31H283.178V4.207H277.406V21.523L264.497 4.207H258.764V31Z" fill="white"/>
<path d="M2.068 61H3.784V49.582L9.394 60.12L15.004 49.582V61H16.72V45.886H15.004L9.394 56.424L3.784 45.886H2.068V61ZM25.1353 59.79C22.8913 59.79 21.3293 58.162 21.0873 55.94H30.3933C30.3933 51.958 28.4353 49.362 25.0033 49.362C21.9453 49.362 19.3933 51.892 19.3933 55.28C19.3933 58.778 22.1213 61.264 25.1573 61.264C26.7413 61.264 28.7433 60.582 29.7333 59.504L28.7213 58.426C28.0173 59.196 26.4773 59.79 25.1353 59.79ZM25.0693 50.836C27.3353 50.836 28.5453 52.42 28.7653 54.466H21.1093C21.4173 52.266 23.0453 50.836 25.0693 50.836ZM32.6533 61H34.3033V45.622H32.6533V61ZM42.6097 49.362C41.0037 49.362 39.5297 50.242 38.8697 51.452V45.622H37.2197V61H38.8697V53.762C38.8697 52.178 40.4757 50.836 42.3897 50.836C44.0617 50.836 45.2277 52.134 45.2277 53.982V61H46.8777V53.762C46.8777 51.188 45.1177 49.362 42.6097 49.362ZM55.0572 61.264C58.2472 61.264 60.9312 58.536 60.9312 55.302C60.9312 52.068 58.2472 49.362 55.0572 49.362C51.8672 49.362 49.1612 52.068 49.1612 55.302C49.1612 58.536 51.8672 61.264 55.0572 61.264ZM55.0572 59.79C52.7912 59.79 50.8992 57.744 50.8992 55.302C50.8992 52.882 52.7912 50.836 55.0572 50.836C57.3012 50.836 59.1932 52.882 59.1932 55.302C59.1932 57.744 57.3012 59.79 55.0572 59.79ZM65.0201 51.848V49.626H63.3701V61H65.0201V54.642C65.0201 52.42 66.8461 50.836 69.4201 50.836V49.362C67.3301 49.362 65.7021 50.33 65.0201 51.848ZM75.8825 49.362C74.7825 49.362 73.4185 49.648 71.7905 50.462L72.4505 51.804C73.4845 51.276 74.6285 50.77 75.7725 50.77C78.2365 50.77 78.8525 52.53 78.8525 54.07V54.488C77.6865 54.114 76.3885 53.85 75.1565 53.85C72.7145 53.85 70.6905 55.368 70.6905 57.634C70.6905 59.878 72.4505 61.264 74.8485 61.264C76.3445 61.264 78.0385 60.56 78.8525 59.218V61H80.5025V54.07C80.5025 51.32 78.9845 49.362 75.8825 49.362ZM75.1345 59.812C73.5285 59.812 72.2965 58.976 72.2965 57.568C72.2965 56.204 73.7265 55.236 75.4205 55.236C76.6525 55.236 77.8185 55.412 78.8525 55.698V57.436C78.4125 59.042 76.6305 59.812 75.1345 59.812ZM88.8458 49.362C87.2398 49.362 85.7658 50.242 85.1058 51.452V49.626H83.4558V61H85.1058V53.762C85.1058 52.178 86.7118 50.836 88.6258 50.836C90.2978 50.836 91.4638 52.134 91.4638 53.982V61H93.1138V53.762C93.1138 51.188 91.3538 49.362 88.8458 49.362ZM104.901 45.622V51.76C104.043 50.264 102.591 49.362 100.765 49.362C97.7733 49.362 95.5293 51.826 95.5293 55.302C95.5293 58.8 97.7733 61.264 100.765 61.264C102.591 61.264 104.043 60.362 104.901 58.866V61H106.551V45.622H104.901ZM101.073 59.79C98.8513 59.79 97.2673 57.92 97.2673 55.302C97.2673 52.684 98.8513 50.836 101.073 50.836C103.317 50.836 104.901 52.684 104.901 55.302C104.901 57.92 103.317 59.79 101.073 59.79ZM114.883 61.264C118.073 61.264 120.757 58.536 120.757 55.302C120.757 52.068 118.073 49.362 114.883 49.362C111.693 49.362 108.987 52.068 108.987 55.302C108.987 58.536 111.693 61.264 114.883 61.264ZM114.883 59.79C112.617 59.79 110.725 57.744 110.725 55.302C110.725 52.882 112.617 50.836 114.883 50.836C117.127 50.836 119.019 52.882 119.019 55.302C119.019 57.744 117.127 59.79 114.883 59.79ZM133.602 49.362C132.502 49.362 131.138 49.648 129.51 50.462L130.17 51.804C131.204 51.276 132.348 50.77 133.492 50.77C135.956 50.77 136.572 52.53 136.572 54.07V54.488C135.406 54.114 134.108 53.85 132.876 53.85C130.434 53.85 128.41 55.368 128.41 57.634C128.41 59.878 130.17 61.264 132.568 61.264C134.064 61.264 135.758 60.56 136.572 59.218V61H138.222V54.07C138.222 51.32 136.704 49.362 133.602 49.362ZM132.854 59.812C131.248 59.812 130.016 58.976 130.016 57.568C130.016 56.204 131.446 55.236 133.14 55.236C134.372 55.236 135.538 55.412 136.572 55.698V57.436C136.132 59.042 134.35 59.812 132.854 59.812ZM155.983 49.626V51.76C155.125 50.264 153.673 49.362 151.847 49.362C148.855 49.362 146.611 51.826 146.611 55.302C146.611 58.8 148.855 61.264 151.847 61.264C153.673 61.264 155.125 60.362 155.983 58.866V64.784H157.633V49.626H155.983ZM152.155 59.79C149.933 59.79 148.349 57.92 148.349 55.302C148.349 52.684 149.933 50.836 152.155 50.836C154.399 50.836 155.983 52.684 155.983 55.302C155.983 57.92 154.399 59.79 152.155 59.79ZM168.692 49.626V56.864C168.692 58.448 167.086 59.79 165.172 59.79C163.5 59.79 162.334 58.492 162.334 56.644V49.626H160.684V56.864C160.684 59.438 162.444 61.264 164.952 61.264C166.558 61.264 168.032 60.384 168.692 59.174V61H170.342V49.626H168.692ZM177.883 49.362C176.783 49.362 175.419 49.648 173.791 50.462L174.451 51.804C175.485 51.276 176.629 50.77 177.773 50.77C180.237 50.77 180.853 52.53 180.853 54.07V54.488C179.687 54.114 178.389 53.85 177.157 53.85C174.715 53.85 172.691 55.368 172.691 57.634C172.691 59.878 174.451 61.264 176.849 61.264C178.345 61.264 180.039 60.56 180.853 59.218V61H182.503V54.07C182.503 51.32 180.985 49.362 177.883 49.362ZM177.135 59.812C175.529 59.812 174.297 58.976 174.297 57.568C174.297 56.204 175.727 55.236 177.421 55.236C178.653 55.236 179.819 55.412 180.853 55.698V57.436C180.413 59.042 178.631 59.812 177.135 59.812ZM185.435 61H187.085V45.622H185.435V61ZM190.793 47.558C191.387 47.558 191.871 47.052 191.871 46.458C191.871 45.886 191.387 45.38 190.793 45.38C190.177 45.38 189.693 45.886 189.693 46.458C189.693 47.052 190.177 47.558 190.793 47.558ZM189.957 61H191.607V49.626H189.957V61ZM203.369 45.622V51.76C202.511 50.264 201.059 49.362 199.233 49.362C196.241 49.362 193.997 51.826 193.997 55.302C193.997 58.8 196.241 61.264 199.233 61.264C201.059 61.264 202.511 60.362 203.369 58.866V61H205.019V45.622H203.369ZM199.541 59.79C197.319 59.79 195.735 57.92 195.735 55.302C195.735 52.684 197.319 50.836 199.541 50.836C201.785 50.836 203.369 52.684 203.369 55.302C203.369 57.92 201.785 59.79 199.541 59.79ZM212.69 49.362C211.59 49.362 210.226 49.648 208.598 50.462L209.258 51.804C210.292 51.276 211.436 50.77 212.58 50.77C215.044 50.77 215.66 52.53 215.66 54.07V54.488C214.494 54.114 213.196 53.85 211.964 53.85C209.522 53.85 207.498 55.368 207.498 57.634C207.498 59.878 209.258 61.264 211.656 61.264C213.152 61.264 214.846 60.56 215.66 59.218V61H217.31V54.07C217.31 51.32 215.792 49.362 212.69 49.362ZM211.942 59.812C210.336 59.812 209.104 58.976 209.104 57.568C209.104 56.204 210.534 55.236 212.228 55.236C213.46 55.236 214.626 55.412 215.66 55.698V57.436C215.22 59.042 213.438 59.812 211.942 59.812ZM229.129 45.622V51.76C228.271 50.264 226.819 49.362 224.993 49.362C222.001 49.362 219.757 51.826 219.757 55.302C219.757 58.8 222.001 61.264 224.993 61.264C226.819 61.264 228.271 60.362 229.129 58.866V61H230.779V45.622H229.129ZM225.301 59.79C223.079 59.79 221.495 57.92 221.495 55.302C221.495 52.684 223.079 50.836 225.301 50.836C227.545 50.836 229.129 52.684 229.129 55.302C229.129 57.92 227.545 59.79 225.301 59.79ZM238.956 59.79C236.712 59.79 235.15 58.162 234.908 55.94H244.214C244.214 51.958 242.256 49.362 238.824 49.362C235.766 49.362 233.214 51.892 233.214 55.28C233.214 58.778 235.942 61.264 238.978 61.264C240.562 61.264 242.564 60.582 243.554 59.504L242.542 58.426C241.838 59.196 240.298 59.79 238.956 59.79ZM238.89 50.836C241.156 50.836 242.366 52.42 242.586 54.466H234.93C235.238 52.266 236.866 50.836 238.89 50.836ZM256.177 61H257.761L262.535 49.626H260.687L256.969 59.064L253.185 49.626H251.337L256.177 61ZM265.186 47.558C265.78 47.558 266.264 47.052 266.264 46.458C266.264 45.886 265.78 45.38 265.186 45.38C264.57 45.38 264.086 45.886 264.086 46.458C264.086 47.052 264.57 47.558 265.186 47.558ZM264.35 61H266V49.626H264.35V61ZM270.677 51.848V49.626H269.027V61H270.677V54.642C270.677 52.42 272.503 50.836 275.077 50.836V49.362C272.987 49.362 271.359 50.33 270.677 51.848ZM281.913 59.328C281.671 59.592 281.231 59.79 280.725 59.79C280.065 59.79 279.493 59.196 279.493 58.36V51.1H282.287V49.626H279.493V46.502H277.843V49.626H276.061V51.1H277.843V58.36C277.843 60.054 278.987 61.264 280.615 61.264C281.385 61.264 282.133 61 282.727 60.538L281.913 59.328ZM292.63 49.626V56.864C292.63 58.448 291.024 59.79 289.11 59.79C287.438 59.79 286.272 58.492 286.272 56.644V49.626H284.622V56.864C284.622 59.438 286.382 61.264 288.89 61.264C290.496 61.264 291.97 60.384 292.63 59.174V61H294.28V49.626H292.63ZM301.822 49.362C300.722 49.362 299.358 49.648 297.73 50.462L298.39 51.804C299.424 51.276 300.568 50.77 301.712 50.77C304.176 50.77 304.792 52.53 304.792 54.07V54.488C303.626 54.114 302.328 53.85 301.096 53.85C298.654 53.85 296.63 55.368 296.63 57.634C296.63 59.878 298.39 61.264 300.788 61.264C302.284 61.264 303.978 60.56 304.792 59.218V61H306.442V54.07C306.442 51.32 304.924 49.362 301.822 49.362ZM301.074 59.812C299.468 59.812 298.236 58.976 298.236 57.568C298.236 56.204 299.666 55.236 301.36 55.236C302.592 55.236 303.758 55.412 304.792 55.698V57.436C304.352 59.042 302.57 59.812 301.074 59.812ZM309.373 61H311.023V45.622H309.373V61ZM328.746 45.622V51.76C327.888 50.264 326.436 49.362 324.61 49.362C321.618 49.362 319.374 51.826 319.374 55.302C319.374 58.8 321.618 61.264 324.61 61.264C326.436 61.264 327.888 60.362 328.746 58.866V61H330.396V45.622H328.746ZM324.918 59.79C322.696 59.79 321.112 57.92 321.112 55.302C321.112 52.684 322.696 50.836 324.918 50.836C327.162 50.836 328.746 52.684 328.746 55.302C328.746 57.92 327.162 59.79 324.918 59.79ZM338.573 59.79C336.329 59.79 334.767 58.162 334.525 55.94H343.831C343.831 51.958 341.873 49.362 338.441 49.362C335.383 49.362 332.831 51.892 332.831 55.28C332.831 58.778 335.559 61.264 338.595 61.264C340.179 61.264 342.181 60.582 343.171 59.504L342.159 58.426C341.455 59.196 339.915 59.79 338.573 59.79ZM338.507 50.836C340.773 50.836 341.983 52.42 342.203 54.466H334.547C334.855 52.266 336.483 50.836 338.507 50.836ZM356.058 61.264C358.412 61.264 360.216 59.922 360.216 57.832C360.216 55.676 358.324 55.06 356.498 54.488C354.386 53.806 353.55 53.498 353.55 52.508C353.55 51.408 354.606 50.836 355.882 50.836C356.894 50.836 358.016 51.188 359.16 51.914L359.952 50.638C358.742 49.846 357.29 49.362 355.882 49.362C353.616 49.362 351.9 50.638 351.9 52.706C351.9 54.334 352.956 55.148 355.706 55.94C357.246 56.38 358.566 56.776 358.566 58.008C358.566 59.086 357.554 59.79 356.058 59.79C354.804 59.79 353.506 59.306 352.208 58.36L351.35 59.57C352.714 60.67 354.474 61.264 356.058 61.264ZM370.514 49.626V56.864C370.514 58.448 368.908 59.79 366.994 59.79C365.322 59.79 364.156 58.492 364.156 56.644V49.626H362.506V56.864C362.506 59.438 364.266 61.264 366.774 61.264C368.38 61.264 369.854 60.384 370.514 59.174V61H372.164V49.626H370.514ZM379.706 49.362C378.606 49.362 377.242 49.648 375.614 50.462L376.274 51.804C377.308 51.276 378.452 50.77 379.596 50.77C382.06 50.77 382.676 52.53 382.676 54.07V54.488C381.51 54.114 380.212 53.85 378.98 53.85C376.538 53.85 374.514 55.368 374.514 57.634C374.514 59.878 376.274 61.264 378.672 61.264C380.168 61.264 381.862 60.56 382.676 59.218V61H384.326V54.07C384.326 51.32 382.808 49.362 379.706 49.362ZM378.958 59.812C377.352 59.812 376.12 58.976 376.12 57.568C376.12 56.204 377.55 55.236 379.244 55.236C380.476 55.236 381.642 55.412 382.676 55.698V57.436C382.236 59.042 380.454 59.812 378.958 59.812ZM398.324 59.79C396.08 59.79 394.518 58.162 394.276 55.94H403.582C403.582 51.958 401.624 49.362 398.192 49.362C395.134 49.362 392.582 51.892 392.582 55.28C392.582 58.778 395.31 61.264 398.346 61.264C399.93 61.264 401.932 60.582 402.922 59.504L401.91 58.426C401.206 59.196 399.666 59.79 398.324 59.79ZM398.258 50.836C400.524 50.836 401.734 52.42 401.954 54.466H394.298C394.606 52.266 396.234 50.836 398.258 50.836ZM418.14 49.362C416.424 49.362 414.928 50.308 414.466 51.782C413.85 50.308 412.508 49.362 410.792 49.362C409.296 49.362 408.064 50.11 407.492 51.298V49.626H405.842V61H407.492V53.762C407.492 52.046 408.768 50.836 410.572 50.836C412.112 50.836 413.19 52.134 413.19 53.982V61H414.84V53.762C414.84 52.046 416.116 50.836 417.92 50.836C419.46 50.836 420.538 52.134 420.538 53.982V61H422.188V53.762C422.188 51.188 420.516 49.362 418.14 49.362ZM431.022 49.362C429.196 49.362 427.744 50.264 426.886 51.76V49.626H425.236V64.784H426.886V58.866C427.744 60.362 429.196 61.264 431.022 61.264C434.014 61.264 436.258 58.8 436.258 55.302C436.258 51.826 434.014 49.362 431.022 49.362ZM430.714 59.79C428.47 59.79 426.886 57.92 426.886 55.302C426.886 52.684 428.47 50.836 430.714 50.836C432.936 50.836 434.52 52.684 434.52 55.302C434.52 57.92 432.936 59.79 430.714 59.79ZM440.475 51.848V49.626H438.825V61H440.475V54.642C440.475 52.42 442.301 50.836 444.875 50.836V49.362C442.785 49.362 441.157 50.33 440.475 51.848ZM451.843 59.79C449.599 59.79 448.037 58.162 447.795 55.94H457.101C457.101 51.958 455.143 49.362 451.711 49.362C448.653 49.362 446.101 51.892 446.101 55.28C446.101 58.778 448.829 61.264 451.865 61.264C453.449 61.264 455.451 60.582 456.441 59.504L455.429 58.426C454.725 59.196 453.185 59.79 451.843 59.79ZM451.777 50.836C454.043 50.836 455.253 52.42 455.473 54.466H447.817C448.125 52.266 449.753 50.836 451.777 50.836ZM463.387 61.264C465.741 61.264 467.545 59.922 467.545 57.832C467.545 55.676 465.653 55.06 463.827 54.488C461.715 53.806 460.879 53.498 460.879 52.508C460.879 51.408 461.935 50.836 463.211 50.836C464.223 50.836 465.345 51.188 466.489 51.914L467.281 50.638C466.071 49.846 464.619 49.362 463.211 49.362C460.945 49.362 459.229 50.638 459.229 52.706C459.229 54.334 460.285 55.148 463.035 55.94C464.575 56.38 465.895 56.776 465.895 58.008C465.895 59.086 464.883 59.79 463.387 59.79C462.133 59.79 460.835 59.306 459.537 58.36L458.679 59.57C460.043 60.67 461.803 61.264 463.387 61.264ZM474.455 49.362C473.355 49.362 471.991 49.648 470.363 50.462L471.023 51.804C472.057 51.276 473.201 50.77 474.345 50.77C476.809 50.77 477.425 52.53 477.425 54.07V54.488C476.259 54.114 474.961 53.85 473.729 53.85C471.287 53.85 469.263 55.368 469.263 57.634C469.263 59.878 471.023 61.264 473.421 61.264C474.917 61.264 476.611 60.56 477.425 59.218V61H479.075V54.07C479.075 51.32 477.557 49.362 474.455 49.362ZM473.707 59.812C472.101 59.812 470.869 58.976 470.869 57.568C470.869 56.204 472.299 55.236 473.993 55.236C475.225 55.236 476.391 55.412 477.425 55.698V57.436C476.985 59.042 475.203 59.812 473.707 59.812ZM483.151 61.264C483.789 61.264 484.317 60.714 484.317 60.054C484.317 59.438 483.789 58.888 483.151 58.888C482.469 58.888 481.941 59.438 481.941 60.054C481.941 60.714 482.469 61.264 483.151 61.264Z" fill="white"/>
</svg>
