<svg width="256" height="194" viewBox="0 0 256 194" fill="none" xmlns="http://www.w3.org/2000/svg">
<circle opacity="0.9" cx="79.2143" cy="109.783" r="55.9286" transform="rotate(-15 79.2143 109.783)" fill="#F5E4EB"/>
<g clip-path="url(#clip0_6_1027)">
<path d="M171.445 160.749L170.618 157.662L176.921 137.47L179.353 136.819L180.571 141.363L179.028 141.776L174.526 156.244L174.579 156.442L189.558 152.428L190.425 155.663L171.445 160.749ZM184.759 162.475L183.184 156.598L182.832 155.183L178.007 137.179L181.626 136.21L188.402 161.499L184.759 162.475ZM204.69 157.506C202.92 157.98 201.274 158.094 199.752 157.849C198.239 157.602 196.956 157.046 195.904 156.181C194.851 155.315 194.146 154.199 193.788 152.83C193.493 151.762 193.448 150.72 193.652 149.703C193.862 148.676 194.274 147.759 194.886 146.95C195.497 146.134 196.258 145.515 197.169 145.095L197.129 144.947C195.788 144.979 194.598 144.575 193.561 143.732C192.523 142.889 191.827 141.788 191.471 140.427C191.116 139.137 191.149 137.893 191.569 136.695C191.996 135.487 192.74 134.427 193.801 133.516C194.863 132.605 196.172 131.941 197.728 131.524C199.267 131.112 200.722 131.04 202.091 131.308C203.466 131.566 204.64 132.112 205.613 132.945C206.584 133.771 207.246 134.824 207.598 136.106C207.954 137.467 207.889 138.772 207.404 140.023C206.918 141.274 206.103 142.216 204.958 142.849L204.998 142.997C205.988 142.908 206.944 143.067 207.865 143.473C208.791 143.869 209.602 144.459 210.298 145.243C210.999 146.017 211.497 146.938 211.792 148.006C212.15 149.374 212.09 150.696 211.611 151.972C211.132 153.247 210.295 154.371 209.1 155.345C207.913 156.315 206.443 157.036 204.69 157.506ZM203.853 154.382C204.898 154.101 205.757 153.686 206.43 153.135C207.101 152.576 207.562 151.927 207.815 151.189C208.065 150.443 208.08 149.644 207.861 148.794C207.617 147.916 207.178 147.199 206.544 146.646C205.919 146.09 205.172 145.721 204.302 145.539C203.433 145.357 202.504 145.399 201.517 145.664C200.52 145.93 199.687 146.361 199.017 146.955C198.347 147.55 197.88 148.244 197.616 149.038C197.353 149.832 197.343 150.668 197.587 151.547C197.806 152.397 198.206 153.084 198.788 153.608C199.375 154.121 200.103 154.451 200.972 154.597C201.839 154.736 202.799 154.664 203.853 154.382ZM200.699 142.613C201.539 142.388 202.239 142.02 202.799 141.508C203.359 140.996 203.743 140.39 203.953 139.69C204.17 138.988 204.175 138.232 203.967 137.423C203.747 136.635 203.373 135.994 202.843 135.501C202.322 135.005 201.694 134.684 200.957 134.537C200.219 134.382 199.421 134.419 198.565 134.649C197.692 134.882 196.971 135.252 196.401 135.758C195.836 136.253 195.452 136.846 195.249 137.536C195.046 138.225 195.054 138.964 195.274 139.753C195.482 140.561 195.852 141.217 196.383 141.719C196.915 142.22 197.551 142.553 198.291 142.716C199.041 142.877 199.843 142.843 200.699 142.613Z" fill="#E5397F"/>
<path d="M156.049 98.3209L155.222 95.2338L161.524 75.0423L163.957 74.3905L165.175 78.9348L163.631 79.3483L159.13 93.816L159.183 94.0136L174.162 90L175.028 93.2353L156.049 98.3209ZM169.363 100.047L167.788 94.1696L167.435 92.7553L162.611 74.7512L166.229 73.7817L173.005 99.0714L169.363 100.047ZM181.507 96.7933L186.697 72.0031L186.647 71.8179L173.879 75.2392L173.002 71.9668L189.722 67.4868L190.629 70.8703L185.496 95.7246L181.507 96.7933Z" fill="#E5397F"/>
</g>
<circle cx="67.0027" cy="79.1126" r="3.85714" transform="rotate(-15 67.0027 79.1126)" fill="#C190ED"/>
<circle cx="75.6961" cy="76.7832" r="3.85714" transform="rotate(-15 75.6961 76.7832)" fill="#9FCEF4"/>
<circle cx="93" cy="141.362" r="3.85714" transform="rotate(165 93 141.362)" fill="#C190ED"/>
<circle cx="84.3066" cy="143.692" r="3.85714" transform="rotate(165 84.3066 143.692)" fill="#9FCEF4"/>
<circle cx="111.126" cy="97.2387" r="3.85714" transform="rotate(75 111.126 97.2387)" fill="#C190ED"/>
<circle cx="113.456" cy="105.932" r="3.85714" transform="rotate(75 113.456 105.932)" fill="#9FCEF4"/>
<circle cx="48.8768" cy="123.236" r="3.85714" transform="rotate(-105 48.8768 123.236)" fill="#C190ED"/>
<circle cx="46.5474" cy="114.543" r="3.85714" transform="rotate(-105 46.5474 114.543)" fill="#9FCEF4"/>
<circle cx="92.8188" cy="79.0373" r="3.85714" transform="rotate(30 92.8188 79.0373)" fill="#C190ED"/>
<circle cx="100.613" cy="83.5373" r="3.85714" transform="rotate(30 100.613 83.5373)" fill="#9FCEF4"/>
<circle cx="67.1844" cy="141.437" r="3.85714" transform="rotate(-150 67.1844 141.437)" fill="#C190ED"/>
<circle cx="59.3902" cy="136.937" r="3.85714" transform="rotate(-150 59.3902 136.937)" fill="#9FCEF4"/>
<circle cx="111.202" cy="123.055" r="3.85714" transform="rotate(120 111.202 123.055)" fill="#C190ED"/>
<circle cx="106.702" cy="130.849" r="3.85714" transform="rotate(120 106.702 130.849)" fill="#9FCEF4"/>
<circle cx="48.8016" cy="97.4202" r="3.85714" transform="rotate(-60 48.8016 97.4202)" fill="#C190ED"/>
<circle cx="53.3016" cy="89.6259" r="3.85714" transform="rotate(-60 53.3016 89.6259)" fill="#9FCEF4"/>
<path d="M61.3367 92.0405C56.2077 94.0887 52.5388 98.466 51.4249 103.856C51.12 105.373 51.0337 107.193 51.2033 108.757C51.351 110.24 52.1985 113.17 52.9014 114.629C56.654 122.533 65.9704 129.546 77.602 133.23C81.0647 134.324 85.4781 135.1 86.5725 134.807C87.8649 134.461 91.5538 131.276 94.3855 128.059C102.074 119.31 106.329 108.923 105.676 100.525C105.546 98.8754 104.818 95.9258 104.202 94.5561C103.256 92.4259 101.755 90.4074 99.9266 88.8008C98.8493 87.8541 96.1244 86.3006 94.7395 85.8356C91.5789 84.7982 88.5453 84.7001 85.3668 85.5518C81.4082 86.6125 78.098 89.0219 76.0111 92.3638L75.4531 93.2621L74.5208 92.7631C71.9452 91.3943 68.7681 90.7606 65.8047 91.018C64.415 91.1408 62.452 91.592 61.3367 92.0405Z" fill="#E5397F"/>
<path d="M61.3367 92.0405C56.2077 94.0887 52.5388 98.466 51.4249 103.856C51.12 105.373 51.0337 107.193 51.2033 108.757C51.351 110.24 52.1985 113.17 52.9014 114.629C56.654 122.533 65.9704 129.546 77.602 133.23C81.0647 134.324 85.4781 135.1 86.5725 134.807C87.8649 134.461 91.5538 131.276 94.3855 128.059C102.074 119.31 106.329 108.923 105.676 100.525C105.546 98.8754 104.818 95.9258 104.202 94.5561C103.256 92.4259 101.755 90.4074 99.9266 88.8008C98.8493 87.8541 96.1244 86.3006 94.7395 85.8356C91.5789 84.7982 88.5453 84.7001 85.3668 85.5518C81.4082 86.6125 78.098 89.0219 76.0111 92.3638L75.4531 93.2621L74.5208 92.7631C71.9452 91.3943 68.7681 90.7606 65.8047 91.018C64.415 91.1408 62.452 91.592 61.3367 92.0405ZM65.3009 94.9591C68.632 94.4908 71.8031 95.2883 74.4943 97.2751C75.5186 98.0239 76.0274 98.1995 76.7026 98.0186C77.4129 97.8283 77.723 97.4956 78.2558 96.3171C79.1239 94.3874 80.1875 92.9544 81.6922 91.6776C84.9733 88.9267 89.4329 88.1061 93.5528 89.5104C95.6555 90.2323 97.9885 91.9532 99.3114 93.77C101.867 97.2532 102.553 102.423 101.178 107.908C100.34 111.302 99.2044 114.002 97.096 117.637C94.9536 121.33 92.8148 124.199 90.1107 127.008C88.8405 128.322 86.7696 130.187 85.969 130.738C85.4601 131.074 85.1324 131.062 82.6767 130.56C75.468 129.085 67.567 125.212 62.3345 120.587C59.9483 118.481 57.8215 115.806 56.5218 113.284C56.153 112.559 55.9192 111.873 55.4816 110.194C54.9481 108.203 54.9059 107.952 54.9443 106.931C55.0339 104.611 55.524 102.807 56.601 100.959C58.0105 98.5348 60.0504 96.7403 62.5679 95.7039C63.6831 95.2553 64.1488 95.1305 65.3009 94.9591Z" fill="#E5397F"/>
<defs>
<clipPath id="clip0_6_1027">
<rect width="70.7143" height="77.1429" fill="white" transform="translate(129.63 57.0074) rotate(-15)"/>
</clipPath>
</defs>
</svg>
